<svg height="200px" width="200px" version="1.1" id="Layer_1" xmlns="http://www.w3.org/2000/svg" xmlns:xlink="http://www.w3.org/1999/xlink" viewBox="-51.2 -51.2 614.40 614.40" xml:space="preserve" fill="#000000"><g id="SVGRepo_bgCarrier" stroke-width="0"><rect x="-51.2" y="-51.2" width="614.40" height="614.40" rx="307.2" fill="#ffffff" strokewidth="0"></rect></g><g id="SVGRepo_tracerCarrier" stroke-linecap="round" stroke-linejoin="round"></g><g id="SVGRepo_iconCarrier"> <path style="fill:#fd81a0;" d="M256.026,512l-14.601-11.637c-80.139-64.111-179.839-143.871-179.839-282.62V85.542h23.33 C169.15,85.542,232.67,48.767,232.67,0h46.659c0,48.767,63.52,85.542,147.754,85.542h23.33v132.201 c0,138.749-99.702,218.509-179.811,282.598L256.026,512z"></path> <path style="fill:#8a24f0;" d="M427.084,85.542C342.85,85.542,279.33,48.767,279.33,0H256v511.978l0.028,0.022l14.575-11.66 c80.109-64.088,179.811-143.847,179.811-282.597V85.542H427.084z"></path> </g></svg>